<svg version="1.1" xmlns="http://www.w3.org/2000/svg" xmlns:xlink="http://www.w3.org/1999/xlink" x="0px" y="0px"  viewBox="0 0 501.7 231.3" style="enable-background:new 0 0 501.7 231.3;" xml:space="preserve"> <style type="text/css"> .st0{display:none;} .st1{display:inline;} .st2{fill:#1B4F9E;} .st3{fill:#00A283;} </style>  <g> <path class="st2" d="M188.9,208.3H13.4c-2.5,0-4.5-2-4.5-4.5V28.2c0-2.5,2-4.5,4.5-4.5h175.6c2.5,0,4.5,2,4.5,4.5v175.6 C193.4,206.3,191.4,208.3,188.9,208.3z"/> <circle class="st3" cx="122.8" cy="94.5" r="30.4"/> <g> <path class="st2" d="M240.5,141.1h-8.9v-4.4h-0.1c-2,3.4-5,5.1-9,5.1c-2.9,0-5.3-0.8-7-2.5c-1.7-1.7-2.5-3.9-2.5-6.7 c0-5.9,3.5-9.3,10.5-10.2l8.2-1.1c0-3.3-1.8-5-5.4-5c-3.6,0-7.1,1.1-10.3,3.2v-7.1c1.3-0.7,3.1-1.3,5.4-1.8 c2.3-0.5,4.3-0.8,6.2-0.8c8.7,0,13,4.3,13,13V141.1z M231.7,128.7v-2l-5.5,0.7c-3,0.4-4.6,1.8-4.6,4.1c0,1.1,0.4,1.9,1.1,2.6 c0.7,0.7,1.7,1,3,1c1.8,0,3.2-0.6,4.3-1.8C231.1,132.1,231.7,130.6,231.7,128.7z"/> <path class="st2" d="M270.9,140c-2.1,1.2-5.2,1.8-9.2,1.8c-4.7,0-8.4-1.4-11.3-4.2c-2.9-2.8-4.3-6.5-4.3-10.9 c0-5.2,1.5-9.2,4.6-12.2c3.1-3,7.2-4.5,12.4-4.5c3.6,0,6.2,0.5,7.8,1.4v7.9c-2-1.5-4.1-2.2-6.6-2.2c-2.7,0-4.8,0.8-6.4,2.4 c-1.6,1.6-2.4,3.7-2.4,6.5c0,2.7,0.8,4.8,2.3,6.3s3.6,2.3,6.2,2.3c2.3,0,4.6-0.7,6.8-2.2V140z"/> <path class="st2" d="M275,140.3v-7.6c1.5,0.9,3.1,1.6,4.6,2.1c1.5,0.5,3,0.7,4.3,0.7c1.7,0,3-0.2,3.9-0.7c1-0.5,1.4-1.1,1.4-2.1 c0-0.6-0.2-1.1-0.7-1.5c-0.4-0.4-1-0.7-1.7-1c-0.7-0.3-1.4-0.6-2.2-0.8c-0.8-0.2-1.6-0.5-2.3-0.8c-1.2-0.5-2.3-0.9-3.2-1.5 s-1.7-1.1-2.3-1.8s-1.1-1.5-1.4-2.4c-0.3-0.9-0.5-2-0.5-3.2c0-1.7,0.4-3.2,1.1-4.4c0.7-1.2,1.7-2.2,3-3c1.2-0.8,2.6-1.4,4.2-1.7 s3.2-0.5,5-0.5c1.3,0,2.7,0.1,4.1,0.3s2.7,0.5,4.1,0.9v7.2c-1.2-0.7-2.5-1.2-3.8-1.6s-2.7-0.5-4-0.5c-0.6,0-1.2,0.1-1.7,0.2 c-0.5,0.1-1,0.3-1.4,0.5c-0.4,0.2-0.7,0.5-1,0.8c-0.2,0.3-0.4,0.7-0.4,1.1c0,0.6,0.2,1,0.5,1.4c0.4,0.4,0.8,0.7,1.4,1 c0.6,0.3,1.2,0.5,1.9,0.8c0.7,0.2,1.4,0.5,2.1,0.7c1.2,0.4,2.4,0.9,3.4,1.4s1.9,1.1,2.6,1.8c0.7,0.7,1.3,1.5,1.7,2.4 c0.4,0.9,0.6,2,0.6,3.3c0,1.8-0.4,3.3-1.2,4.6c-0.8,1.3-1.8,2.3-3.1,3.1c-1.3,0.8-2.8,1.4-4.5,1.7c-1.7,0.4-3.4,0.5-5.3,0.5 C281,141.8,277.9,141.3,275,140.3z"/> <path class="st2" d="M330,137.5h-0.1V155h-9.4v-44.3h9.4v4.6h0.1c2.3-3.5,5.6-5.3,9.8-5.3c3.9,0,7,1.3,9.1,4 c2.1,2.7,3.2,6.4,3.2,11c0,5.1-1.2,9.1-3.8,12.2c-2.5,3.1-5.8,4.6-10,4.6C334.7,141.8,331.9,140.4,330,137.5z M329.7,125.1v2.4 c0,2.1,0.6,3.8,1.7,5.1c1.1,1.3,2.6,2,4.4,2c2.1,0,3.8-0.8,5-2.5c1.2-1.6,1.8-4,1.8-7c0-5.3-2.1-8-6.2-8c-1.9,0-3.5,0.7-4.7,2.2 C330.3,120.8,329.7,122.7,329.7,125.1z"/> <path class="st2" d="M367.5,141.1h-9.4V96.1h9.4V141.1z"/> <path class="st2" d="M404.2,141.1h-9.3v-4.6h-0.1c-2.3,3.6-5.4,5.4-9.3,5.4c-7,0-10.6-4.3-10.6-12.8v-18.3h9.3v17.5 c0,4.3,1.7,6.4,5.1,6.4c1.7,0,3-0.6,4-1.8c1-1.2,1.5-2.8,1.5-4.8v-17.4h9.3V141.1z"/> <path class="st2" d="M410.1,140.3v-7.6c1.5,0.9,3.1,1.6,4.6,2.1c1.5,0.5,3,0.7,4.3,0.7c1.7,0,3-0.2,3.9-0.7c1-0.5,1.4-1.1,1.4-2.1 c0-0.6-0.2-1.1-0.7-1.5c-0.4-0.4-1-0.7-1.7-1c-0.7-0.3-1.4-0.6-2.2-0.8c-0.8-0.2-1.6-0.5-2.3-0.8c-1.2-0.5-2.3-0.9-3.2-1.5 s-1.7-1.1-2.3-1.8s-1.1-1.5-1.4-2.4c-0.3-0.9-0.5-2-0.5-3.2c0-1.7,0.4-3.2,1.1-4.4c0.7-1.2,1.7-2.2,3-3c1.2-0.8,2.6-1.4,4.2-1.7 s3.2-0.5,5-0.5c1.3,0,2.7,0.1,4.1,0.3s2.7,0.5,4.1,0.9v7.2c-1.2-0.7-2.5-1.2-3.8-1.6s-2.7-0.5-4-0.5c-0.6,0-1.2,0.1-1.7,0.2 c-0.5,0.1-1,0.3-1.4,0.5c-0.4,0.2-0.7,0.5-1,0.8c-0.2,0.3-0.4,0.7-0.4,1.1c0,0.6,0.2,1,0.5,1.4c0.4,0.4,0.8,0.7,1.4,1 c0.6,0.3,1.2,0.5,1.9,0.8c0.7,0.2,1.4,0.5,2.1,0.7c1.2,0.4,2.4,0.9,3.4,1.4s1.9,1.1,2.6,1.8c0.7,0.7,1.3,1.5,1.7,2.4 c0.4,0.9,0.6,2,0.6,3.3c0,1.8-0.4,3.3-1.2,4.6c-0.8,1.3-1.8,2.3-3.1,3.1c-1.3,0.8-2.8,1.4-4.5,1.7c-1.7,0.4-3.4,0.5-5.3,0.5 C416.1,141.8,413,141.3,410.1,140.3z"/> </g> <g> <path class="st2" d="M229.9,202.8v-3c-1.5,2.3-3.7,3.5-6.6,3.5c-1.9,0-3.6-0.5-5.2-1.6c-1.6-1-2.8-2.5-3.7-4.4s-1.3-4-1.3-6.4 c0-2.4,0.4-4.5,1.2-6.4c0.8-1.9,2-3.4,3.5-4.4c1.6-1,3.3-1.5,5.3-1.5c1.4,0,2.7,0.3,3.8,0.9c1.1,0.6,2,1.4,2.7,2.4v-11.7h4v32.7 H229.9z M217.2,191c0,3,0.6,5.3,1.9,6.8c1.3,1.5,2.8,2.3,4.5,2.3c1.8,0,3.2-0.7,4.5-2.2c1.2-1.4,1.8-3.6,1.8-6.6 c0-3.2-0.6-5.6-1.9-7.1c-1.2-1.5-2.8-2.3-4.6-2.3c-1.8,0-3.3,0.7-4.5,2.2S217.2,187.9,217.2,191z"/> <path class="st2" d="M255.4,199.9c-1.5,1.3-2.9,2.2-4.3,2.7s-2.8,0.8-4.4,0.8c-2.6,0-4.6-0.6-6-1.9c-1.4-1.3-2.1-2.9-2.1-4.9 c0-1.2,0.3-2.2,0.8-3.2c0.5-1,1.2-1.7,2.1-2.3c0.9-0.6,1.8-1,2.9-1.3c0.8-0.2,2-0.4,3.6-0.6c3.2-0.4,5.6-0.8,7.2-1.4 c0-0.5,0-0.9,0-1c0-1.6-0.4-2.8-1.1-3.5c-1-0.9-2.5-1.4-4.6-1.4c-1.9,0-3.3,0.3-4.2,1c-0.9,0.7-1.6,1.8-2,3.5l-3.9-0.5 c0.4-1.7,0.9-3,1.8-4.1c0.8-1,2-1.8,3.5-2.4c1.5-0.6,3.3-0.8,5.4-0.8c2,0,3.7,0.2,4.9,0.7s2.2,1.1,2.8,1.8c0.6,0.7,1,1.6,1.2,2.7 c0.1,0.7,0.2,1.9,0.2,3.7v5.3c0,3.7,0.1,6.1,0.3,7.1c0.2,1,0.5,1.9,1,2.8h-4.2C255.8,202,255.5,201,255.4,199.9z M255,191 c-1.5,0.6-3.6,1.1-6.6,1.5c-1.6,0.2-2.8,0.5-3.5,0.8c-0.7,0.3-1.2,0.7-1.6,1.3c-0.4,0.6-0.6,1.2-0.6,1.9c0,1.1,0.4,2,1.2,2.7 c0.8,0.7,2,1.1,3.6,1.1c1.5,0,2.9-0.3,4.1-1c1.2-0.7,2.1-1.6,2.7-2.8c0.4-0.9,0.6-2.2,0.6-4V191z"/> <path class="st2" d="M274.1,199.2l0.6,3.5c-1.1,0.2-2.1,0.4-3,0.4c-1.5,0-2.6-0.2-3.4-0.7c-0.8-0.5-1.4-1.1-1.7-1.8 c-0.3-0.8-0.5-2.3-0.5-4.7v-13.6h-2.9v-3.1h2.9v-5.9l4-2.4v8.3h4v3.1h-4v13.8c0,1.1,0.1,1.9,0.2,2.2c0.1,0.3,0.4,0.6,0.7,0.8 c0.3,0.2,0.8,0.3,1.4,0.3C272.7,199.4,273.3,199.3,274.1,199.2z"/> <path class="st2" d="M293.4,199.9c-1.5,1.3-2.9,2.2-4.3,2.7s-2.8,0.8-4.4,0.8c-2.6,0-4.6-0.6-6-1.9c-1.4-1.3-2.1-2.9-2.1-4.9 c0-1.2,0.3-2.2,0.8-3.2c0.5-1,1.2-1.7,2.1-2.3c0.9-0.6,1.8-1,2.9-1.3c0.8-0.2,2-0.4,3.6-0.6c3.2-0.4,5.6-0.8,7.2-1.4 c0-0.5,0-0.9,0-1c0-1.6-0.4-2.8-1.1-3.5c-1-0.9-2.5-1.4-4.6-1.4c-1.9,0-3.3,0.3-4.2,1c-0.9,0.7-1.6,1.8-2,3.5l-3.9-0.5 c0.4-1.7,0.9-3,1.8-4.1c0.8-1,2-1.8,3.5-2.4c1.5-0.6,3.3-0.8,5.4-0.8c2,0,3.7,0.2,4.9,0.7s2.2,1.1,2.8,1.8c0.6,0.7,1,1.6,1.2,2.7 c0.1,0.7,0.2,1.9,0.2,3.7v5.3c0,3.7,0.1,6.1,0.3,7.1c0.2,1,0.5,1.9,1,2.8h-4.2C293.8,202,293.5,201,293.4,199.9z M293.1,191 c-1.5,0.6-3.6,1.1-6.6,1.5c-1.6,0.2-2.8,0.5-3.5,0.8c-0.7,0.3-1.2,0.7-1.6,1.3c-0.4,0.6-0.6,1.2-0.6,1.9c0,1.1,0.4,2,1.2,2.7 c0.8,0.7,2,1.1,3.6,1.1c1.5,0,2.9-0.3,4.1-1c1.2-0.7,2.1-1.6,2.7-2.8c0.4-0.9,0.6-2.2,0.6-4V191z"/> <path class="st2" d="M320.4,202.8l-7.2-23.7h4.1l3.8,13.7l1.4,5.1c0.1-0.3,0.5-1.9,1.2-4.9l3.8-13.9h4.1l3.5,13.7l1.2,4.5l1.4-4.6 l4.1-13.7h3.9l-7.4,23.7h-4.2l-3.8-14.2l-0.9-4l-4.8,18.2H320.4z"/> <path class="st2" d="M349,174.8v-4.6h4v4.6H349z M349,202.8v-23.7h4v23.7H349z"/> <path class="st2" d="M367.9,199.2l0.6,3.5c-1.1,0.2-2.1,0.4-3,0.4c-1.5,0-2.6-0.2-3.4-0.7c-0.8-0.5-1.4-1.1-1.7-1.8 c-0.3-0.8-0.5-2.3-0.5-4.7v-13.6h-2.9v-3.1h2.9v-5.9l4-2.4v8.3h4v3.1h-4v13.8c0,1.1,0.1,1.9,0.2,2.2c0.1,0.3,0.4,0.6,0.7,0.8 c0.3,0.2,0.8,0.3,1.4,0.3C366.6,199.4,367.2,199.3,367.9,199.2z"/> <path class="st2" d="M371.8,202.8v-32.7h4v11.7c1.9-2.2,4.2-3.3,7.1-3.3c1.8,0,3.3,0.3,4.6,1c1.3,0.7,2.2,1.6,2.8,2.9 c0.6,1.2,0.8,3,0.8,5.3v15h-4v-15c0-2-0.4-3.5-1.3-4.4s-2.1-1.4-3.7-1.4c-1.2,0-2.3,0.3-3.4,0.9c-1,0.6-1.8,1.5-2.2,2.5 s-0.7,2.5-0.7,4.4v12.9H371.8z"/> <path class="st2" d="M425.3,194.2l3.9,0.5c-0.4,2.7-1.5,4.8-3.3,6.4c-1.8,1.5-4,2.3-6.5,2.3c-3.2,0-5.8-1.1-7.8-3.2s-3-5.2-3-9.1 c0-2.6,0.4-4.8,1.3-6.7c0.8-1.9,2.1-3.4,3.9-4.3c1.7-1,3.6-1.4,5.6-1.4c2.6,0,4.7,0.7,6.3,2c1.6,1.3,2.7,3.1,3.1,5.5l-3.9,0.6 c-0.4-1.6-1-2.8-2-3.6c-0.9-0.8-2.1-1.2-3.4-1.2c-2,0-3.7,0.7-4.9,2.2c-1.3,1.4-1.9,3.7-1.9,6.9c0,3.2,0.6,5.5,1.8,6.9 c1.2,1.4,2.8,2.2,4.8,2.2c1.6,0,2.9-0.5,3.9-1.4S425.1,196.2,425.3,194.2z"/> <path class="st2" d="M448.2,199.9c-1.5,1.3-2.9,2.2-4.3,2.7s-2.8,0.8-4.4,0.8c-2.6,0-4.6-0.6-6-1.9c-1.4-1.3-2.1-2.9-2.1-4.9 c0-1.2,0.3-2.2,0.8-3.2c0.5-1,1.2-1.7,2.1-2.3c0.9-0.6,1.8-1,2.9-1.3c0.8-0.2,2-0.4,3.6-0.6c3.2-0.4,5.6-0.8,7.2-1.4 c0-0.5,0-0.9,0-1c0-1.6-0.4-2.8-1.1-3.5c-1-0.9-2.5-1.4-4.6-1.4c-1.9,0-3.3,0.3-4.2,1c-0.9,0.7-1.6,1.8-2,3.5l-3.9-0.5 c0.4-1.7,0.9-3,1.8-4.1c0.8-1,2-1.8,3.5-2.4c1.5-0.6,3.3-0.8,5.4-0.8c2,0,3.7,0.2,4.9,0.7s2.2,1.1,2.8,1.8c0.6,0.7,1,1.6,1.2,2.7 c0.1,0.7,0.2,1.9,0.2,3.7v5.3c0,3.7,0.1,6.1,0.3,7.1c0.2,1,0.5,1.9,1,2.8H449C448.5,202,448.3,201,448.2,199.9z M447.8,191 c-1.5,0.6-3.6,1.1-6.6,1.5c-1.6,0.2-2.8,0.5-3.5,0.8c-0.7,0.3-1.2,0.7-1.6,1.3c-0.4,0.6-0.6,1.2-0.6,1.9c0,1.1,0.4,2,1.2,2.7 c0.8,0.7,2,1.1,3.6,1.1c1.5,0,2.9-0.3,4.1-1c1.2-0.7,2.1-1.6,2.7-2.8c0.4-0.9,0.6-2.2,0.6-4V191z"/> <path class="st2" d="M458,202.8v-23.7h3.6v3.6c0.9-1.7,1.8-2.8,2.6-3.3s1.6-0.8,2.6-0.8c1.4,0,2.7,0.4,4.1,1.3l-1.4,3.7 c-1-0.6-2-0.9-2.9-0.9c-0.9,0-1.7,0.3-2.4,0.8s-1.2,1.3-1.5,2.2c-0.4,1.4-0.7,3-0.7,4.7v12.4H458z"/> <path class="st2" d="M489.5,195.2l4.1,0.5c-0.7,2.4-1.9,4.3-3.6,5.6c-1.8,1.3-4,2-6.8,2c-3.5,0-6.2-1.1-8.2-3.2c-2-2.1-3-5.1-3-9 c0-4,1-7.1,3.1-9.3c2-2.2,4.7-3.3,8-3.3c3.2,0,5.8,1.1,7.8,3.2c2,2.2,3,5.2,3,9.1c0,0.2,0,0.6,0,1.1h-17.7c0.1,2.6,0.9,4.6,2.2,6 s3,2.1,4.9,2.1c1.5,0,2.7-0.4,3.8-1.2S488.9,196.9,489.5,195.2z M476.3,188.7h13.2c-0.2-2-0.7-3.5-1.5-4.5c-1.3-1.5-2.9-2.3-5-2.3 c-1.8,0-3.4,0.6-4.6,1.8C477.2,185,476.5,186.7,476.3,188.7z"/> </g> </g> </svg>