<?xml version="1.0" encoding="UTF-8" standalone="no"?>
<!DOCTYPE svg PUBLIC "-//W3C//DTD SVG 1.1//EN" "http://www.w3.org/Graphics/SVG/1.1/DTD/svg11.dtd">
<svg width="100%" height="100%" viewBox="0 0 125 87" version="1.1" xmlns="http://www.w3.org/2000/svg" xmlns:xlink="http://www.w3.org/1999/xlink" xml:space="preserve" style="fill-rule:evenodd;clip-rule:evenodd;stroke-linejoin:round;stroke-miterlimit:1.41421;">
    <g transform="matrix(1,0,0,1,-17.555,-13.623)">
        <path d="M60.533,70.096C60.533,71.037 59.917,71.406 59.424,71.406C58.774,71.406 58.46,70.947 58.46,70.264L58.46,66.343L57.543,66.343L57.543,70.656C57.543,71.619 58.08,72.112 59.066,72.112C59.659,72.112 60.197,71.832 60.5,71.317L60.533,71.317L60.533,71.999L61.507,71.999C61.474,71.607 61.451,71.215 61.451,70.824L61.451,66.343L60.533,66.343L60.533,70.096Z" style="fill:black;fill-rule:nonzero;"/>
        <path d="M67.097,71.999L67.097,68.08C67.097,66.959 66.794,66.232 65.585,66.232C64.856,66.232 64.43,66.433 64.072,67.072L64.028,67.072L64.028,66.343L63.053,66.343C63.087,66.736 63.108,67.126 63.108,67.52L63.108,71.999L64.028,71.999L64.028,68.65C64.028,67.877 64.173,66.982 65.181,66.982C65.965,66.982 66.178,67.475 66.178,68.08L66.178,71.999L67.097,71.999Z" style="fill:black;fill-rule:nonzero;"/>
        <path d="M71.61,68.942C71.61,70.083 71.61,71.362 70.58,71.362C69.426,71.362 69.426,70.128 69.426,69.278C69.426,67.766 69.562,66.982 70.547,66.982C71.565,66.982 71.61,68.192 71.61,68.942ZM71.61,66.914L71.577,66.914C71.263,66.467 70.871,66.232 70.334,66.232C68.508,66.232 68.463,67.855 68.463,69.267C68.463,71.753 69.381,72.112 70.289,72.112C70.882,72.112 71.274,71.854 71.587,71.327L71.61,71.327L71.61,71.999L72.528,71.999L72.528,63.914L71.61,63.914L71.61,66.914Z" style="fill:black;fill-rule:nonzero;"/>
        <path d="M77.422,71.999L77.422,68.303L80.245,68.303L80.245,67.407L77.422,67.407L77.422,64.808L80.401,64.808L80.401,63.914L76.391,63.914L76.391,71.999L77.422,71.999Z" style="fill:black;fill-rule:nonzero;"/>
        <path d="M83.222,71.362C82.269,71.362 82.034,70.701 82.034,68.863C82.034,67.317 82.515,66.982 83.222,66.982C83.927,66.982 84.409,67.317 84.409,68.863C84.409,70.701 84.173,71.362 83.222,71.362ZM83.222,72.112C84.42,72.112 85.371,71.753 85.371,69.255C85.371,67.597 85.181,66.232 83.222,66.232C81.261,66.232 81.071,67.597 81.071,69.255C81.071,71.753 82.022,72.112 83.222,72.112Z" style="fill:black;fill-rule:nonzero;"/>
        <path d="M87.724,66.343L86.806,66.343L86.806,71.999L87.724,71.999L87.724,68.663C87.724,67.9 87.982,67.126 89,67.126C89.168,67.126 89.326,67.162 89.494,67.184L89.494,66.232C88.597,66.232 88.128,66.332 87.748,67.195L87.724,67.195L87.724,66.343Z" style="fill:black;fill-rule:nonzero;"/>
        <path d="M94.08,70.386C94.08,68.663 91.255,68.684 91.255,67.687C91.255,67.195 91.638,66.926 92.13,66.926C92.712,66.926 93.027,67.24 93.015,67.832L94.035,67.832C94.113,66.713 93.252,66.232 92.244,66.232C90.652,66.232 90.293,67.184 90.293,67.777C90.293,69.468 93.117,69.491 93.117,70.498C93.117,71.082 92.691,71.362 92.14,71.362C91.212,71.362 91.201,70.599 91.201,70.275L90.16,70.275C90.125,71.574 90.888,72.112 92.109,72.112C93.228,72.112 94.08,71.63 94.08,70.386Z" style="fill:black;fill-rule:nonzero;"/>
        <path d="M99.15,68.157C99.207,66.891 98.544,66.232 97.414,66.232C95.455,66.232 95.263,67.597 95.263,69.255C95.263,71.753 96.216,72.112 97.414,72.112C98.043,72.112 99.23,71.708 99.195,70.118L98.232,70.118C98.265,71.137 97.627,71.362 97.414,71.362C96.462,71.362 96.228,70.701 96.228,68.863C96.228,67.317 96.709,66.982 97.414,66.982C97.761,66.982 98.22,67.229 98.199,68.157L99.15,68.157Z" style="fill:black;fill-rule:nonzero;"/>
        <path d="M104.66,71.999L104.66,67.99C104.66,66.713 104.123,66.232 103.16,66.232C102.421,66.232 101.996,66.411 101.627,67.072L101.582,67.072L101.582,63.914L100.664,63.914L100.664,71.999L101.582,71.999L101.582,68.672C101.582,67.721 101.816,66.982 102.734,66.982C103.519,66.982 103.742,67.475 103.742,68.169L103.742,71.999L104.66,71.999Z" style="fill:black;fill-rule:nonzero;"/>
        <path d="M109.298,70.096C109.298,71.037 108.683,71.406 108.189,71.406C107.539,71.406 107.226,70.947 107.226,70.264L107.226,66.343L106.308,66.343L106.308,70.656C106.308,71.619 106.845,72.112 107.832,72.112C108.425,72.112 108.962,71.832 109.265,71.317L109.298,71.317L109.298,71.999L110.273,71.999C110.238,71.607 110.216,71.215 110.216,70.824L110.216,66.343L109.298,66.343L109.298,70.096Z" style="fill:black;fill-rule:nonzero;"/>
        <path d="M115.861,71.999L115.861,68.08C115.861,66.959 115.558,66.232 114.349,66.232C113.623,66.232 113.197,66.433 112.837,67.072L112.793,67.072L112.793,66.343L111.82,66.343C111.851,66.736 111.875,67.126 111.875,67.52L111.875,71.999L112.793,71.999L112.793,68.65C112.793,67.877 112.939,66.982 113.947,66.982C114.73,66.982 114.943,67.475 114.943,68.08L114.943,71.999L115.861,71.999Z" style="fill:black;fill-rule:nonzero;"/>
        <path d="M120.398,69.143C120.398,69.928 120.431,71.238 119.324,71.238C118.64,71.238 118.224,70.813 118.224,68.998C118.224,68.248 118.259,66.994 119.3,66.994C120.453,66.994 120.398,68.303 120.398,69.143ZM120.377,67.038L120.353,67.038C120.095,66.49 119.627,66.232 119.033,66.232C118.574,66.232 117.263,66.399 117.263,68.998C117.263,70.678 117.564,71.999 119.099,71.999C119.591,71.999 120.107,71.742 120.341,71.294L120.377,71.294L120.377,72.47C120.377,73.052 120.029,73.445 119.39,73.445C118.886,73.445 118.539,73.154 118.529,72.626L117.498,72.626C117.419,73.668 118.271,74.138 119.21,74.138C120.453,74.138 121.294,73.836 121.294,72.571L121.294,66.343L120.377,66.343L120.377,67.038Z" style="fill:black;fill-rule:nonzero;"/>
        <path d="M57.14,54.343L57.14,55.038L58.012,55.038L58.012,59.999L58.931,59.999L58.931,55.038L60.074,55.038L60.074,54.343L58.931,54.343L58.931,53.38C58.931,52.921 59.099,52.506 60.074,52.573L60.074,51.914C59.939,51.89 59.826,51.879 59.636,51.879C58.818,51.879 58.012,52.103 58.012,53.247L58.012,54.343L57.14,54.343Z" style="fill:black;fill-rule:nonzero;"/>
        <path d="M62.49,52.227L61.437,52.227L61.437,53.391L62.49,53.391L62.49,52.227ZM64.461,52.227L63.408,52.227L63.408,53.391L64.461,53.391L64.461,52.227ZM63.98,58.096C63.98,59.037 63.363,59.406 62.87,59.406C62.222,59.406 61.908,58.946 61.908,58.264L61.908,54.343L60.989,54.343L60.989,58.656C60.989,59.619 61.527,60.112 62.512,60.112C63.106,60.112 63.643,59.832 63.946,59.317L63.98,59.317L63.98,59.999L64.954,59.999C64.921,59.607 64.898,59.215 64.898,58.824L64.898,54.343L63.98,54.343L63.98,58.096Z" style="fill:black;fill-rule:nonzero;"/>
        <path d="M67.507,54.343L66.589,54.343L66.589,59.999L67.507,59.999L67.507,56.663C67.507,55.9 67.765,55.126 68.785,55.126C68.953,55.126 69.108,55.162 69.277,55.184L69.277,54.232C68.381,54.232 67.91,54.332 67.53,55.195L67.507,55.195L67.507,54.343Z" style="fill:black;fill-rule:nonzero;"/>
        <path d="M73.101,56.214L74.198,56.214C75.251,56.214 76.045,56.437 76.045,57.726C76.045,58.319 75.654,59.104 74.556,59.104L73.101,59.104L73.101,56.214ZM73.101,52.808L74.556,52.808C75.419,52.808 75.799,53.358 75.799,54.029C75.799,54.814 75.408,55.307 74.602,55.317L73.101,55.317L73.101,52.808ZM74.669,59.999C75.586,59.999 77.098,59.798 77.098,57.726C77.098,56.618 76.594,55.922 75.441,55.788L75.441,55.733C76.483,55.498 76.83,54.825 76.83,53.816C76.83,53.661 76.785,53.179 76.504,52.741C76.203,52.293 75.822,51.914 74.702,51.914L72.07,51.914L72.07,59.999L74.669,59.999Z" style="fill:black;fill-rule:nonzero;"/>
        <path d="M79.49,54.343L78.572,54.343L78.572,59.999L79.49,59.999L79.49,54.343ZM78.516,52.898L79.547,52.898L79.547,51.914L78.516,51.914L78.516,52.898Z" style="fill:black;fill-rule:nonzero;"/>
        <rect x="81.169" y="51.914" width="0.918" height="8.085" style="fill:black;fill-rule:nonzero;"/>
        <path d="M86.668,56.942C86.668,58.083 86.668,59.362 85.637,59.362C84.482,59.362 84.482,58.128 84.482,57.278C84.482,55.766 84.618,54.982 85.603,54.982C86.623,54.982 86.668,56.192 86.668,56.942ZM86.668,54.914L86.632,54.914C86.32,54.467 85.928,54.232 85.39,54.232C83.565,54.232 83.52,55.855 83.52,57.267C83.52,59.753 84.439,60.112 85.345,60.112C85.939,60.112 86.331,59.854 86.646,59.327L86.668,59.327L86.668,59.999L87.585,59.999L87.585,51.914L86.668,51.914L86.668,54.914Z" style="fill:black;fill-rule:nonzero;"/>
        <path d="M92.302,58.096C92.302,59.037 91.685,59.406 91.193,59.406C90.543,59.406 90.23,58.946 90.23,58.264L90.23,54.343L89.31,54.343L89.31,58.656C89.31,59.619 89.847,60.112 90.834,60.112C91.427,60.112 91.966,59.832 92.267,59.317L92.302,59.317L92.302,59.999L93.275,59.999C93.242,59.607 93.218,59.215 93.218,58.824L93.218,54.343L92.302,54.343L92.302,58.096Z" style="fill:black;fill-rule:nonzero;"/>
        <path d="M98.865,59.999L98.865,56.08C98.865,54.959 98.562,54.232 97.353,54.232C96.625,54.232 96.199,54.433 95.841,55.072L95.794,55.072L95.794,54.343L94.822,54.343C94.855,54.736 94.878,55.126 94.878,55.52L94.878,59.999L95.794,59.999L95.794,56.65C95.794,55.877 95.941,54.982 96.949,54.982C97.734,54.982 97.947,55.475 97.947,56.08L97.947,59.999L98.865,59.999Z" style="fill:black;fill-rule:nonzero;"/>
        <path d="M103.402,57.143C103.402,57.928 103.435,59.238 102.326,59.238C101.642,59.238 101.228,58.813 101.228,56.998C101.228,56.248 101.261,54.994 102.304,54.994C103.457,54.994 103.402,56.303 103.402,57.143ZM103.378,55.038L103.357,55.038C103.099,54.49 102.628,54.232 102.035,54.232C101.576,54.232 100.265,54.399 100.265,56.998C100.265,58.678 100.568,59.999 102.101,59.999C102.593,59.999 103.109,59.742 103.345,59.294L103.378,59.294L103.378,60.469C103.378,61.052 103.031,61.445 102.394,61.445C101.888,61.445 101.541,61.153 101.531,60.626L100.5,60.626C100.421,61.667 101.273,62.138 102.214,62.138C103.457,62.138 104.296,61.836 104.296,60.571L104.296,54.343L103.378,54.343L103.378,55.038Z" style="fill:black;fill-rule:nonzero;"/>
        <path d="M58.607,44.214L59.706,44.214C60.758,44.214 61.553,44.437 61.553,45.726C61.553,46.319 61.161,47.104 60.064,47.104L58.607,47.104L58.607,44.214ZM58.607,40.808L60.064,40.808C60.926,40.808 61.308,41.358 61.308,42.029C61.308,42.814 60.915,43.307 60.107,43.317L58.607,43.317L58.607,40.808ZM60.175,47.999C61.095,47.999 62.606,47.798 62.606,45.726C62.606,44.618 62.103,43.922 60.948,43.788L60.948,43.733C61.99,43.498 62.338,42.825 62.338,41.816C62.338,41.661 62.293,41.179 62.013,40.741C61.711,40.293 61.33,39.914 60.21,39.914L57.577,39.914L57.577,47.999L60.175,47.999Z" style="fill:black;fill-rule:nonzero;"/>
        <path d="M66.937,46.096C66.937,47.037 66.319,47.406 65.826,47.406C65.178,47.406 64.863,46.946 64.863,46.264L64.863,42.343L63.946,42.343L63.946,46.656C63.946,47.619 64.483,48.112 65.468,48.112C66.062,48.112 66.6,47.832 66.901,47.317L66.937,47.317L66.937,47.999L67.909,47.999C67.877,47.607 67.854,47.215 67.854,46.824L67.854,42.343L66.937,42.343L66.937,46.096Z" style="fill:black;fill-rule:nonzero;"/>
        <path d="M73.5,47.999L73.5,44.08C73.5,42.959 73.197,42.232 71.987,42.232C71.259,42.232 70.834,42.433 70.476,43.072L70.43,43.072L70.43,42.343L69.456,42.343C69.49,42.736 69.513,43.126 69.513,43.52L69.513,47.999L70.43,47.999L70.43,44.65C70.43,43.877 70.576,42.982 71.585,42.982C72.368,42.982 72.581,43.475 72.581,44.08L72.581,47.999L73.5,47.999Z" style="fill:black;fill-rule:nonzero;"/>
        <path d="M78.013,44.942C78.013,46.083 78.013,47.362 76.982,47.362C75.83,47.362 75.83,46.128 75.83,45.278C75.83,43.766 75.963,42.982 76.95,42.982C77.968,42.982 78.013,44.192 78.013,44.942ZM78.013,42.914L77.98,42.914C77.667,42.467 77.274,42.232 76.737,42.232C74.911,42.232 74.866,43.855 74.866,45.267C74.866,47.753 75.784,48.112 76.692,48.112C77.285,48.112 77.677,47.854 77.99,47.327L78.013,47.327L78.013,47.999L78.932,47.999L78.932,39.914L78.013,39.914L78.013,42.914Z" style="fill:black;fill-rule:nonzero;"/>
        <path d="M81.306,44.774C81.317,43.207 81.799,42.926 82.382,42.926C83.053,42.926 83.513,43.126 83.513,44.774L81.306,44.774ZM84.487,45.468L84.487,44.987C84.487,43.117 84.083,42.232 82.472,42.232C80.511,42.232 80.321,43.597 80.321,45.255C80.321,47.753 81.272,48.112 82.472,48.112C83.659,48.112 84.431,47.54 84.442,46.287L83.435,46.287C83.401,46.856 83.075,47.362 82.449,47.362C81.732,47.362 81.306,47.047 81.306,45.468L84.487,45.468Z" style="fill:black;fill-rule:nonzero;"/>
        <path d="M89.55,46.386C89.55,44.663 86.728,44.684 86.728,43.687C86.728,43.195 87.109,42.926 87.601,42.926C88.183,42.926 88.498,43.24 88.486,43.832L89.505,43.832C89.584,42.713 88.72,42.232 87.712,42.232C86.123,42.232 85.764,43.184 85.764,43.777C85.764,45.468 88.587,45.491 88.587,46.498C88.587,47.082 88.162,47.362 87.613,47.362C86.683,47.362 86.671,46.599 86.671,46.275L85.63,46.275C85.596,47.574 86.357,48.112 87.58,48.112C88.699,48.112 89.55,47.629 89.55,46.386Z" style="fill:black;fill-rule:nonzero;"/>
        <path d="M94.677,47.999L94.677,44.192C94.677,43.979 94.72,43.418 94.992,43.195C95.236,42.994 95.337,42.982 95.685,42.982C96.425,42.982 96.582,43.508 96.582,44.08L96.582,47.999L97.5,47.999L97.5,43.699C97.5,42.366 96.546,42.232 95.955,42.232C95.439,42.232 94.923,42.354 94.611,42.959C94.396,42.445 93.802,42.232 93.289,42.232C92.628,42.232 92.146,42.445 91.878,43.049L91.855,43.049L91.855,42.343L90.88,42.343C90.914,42.736 90.937,43.126 90.937,43.52L90.937,47.999L91.855,47.999L91.855,44.192C91.855,43.979 91.9,43.642 92.068,43.362C92.203,43.149 92.584,42.982 92.863,42.982C93.603,42.982 93.757,43.508 93.757,44.08L93.757,47.999L94.677,47.999Z" style="fill:black;fill-rule:nonzero;"/>
        <path d="M100.041,42.343L99.123,42.343L99.123,47.999L100.041,47.999L100.041,42.343ZM99.066,40.898L100.097,40.898L100.097,39.914L99.066,39.914L99.066,40.898Z" style="fill:black;fill-rule:nonzero;"/>
        <path d="M105.695,47.999L105.695,44.08C105.695,42.959 105.394,42.232 104.183,42.232C103.455,42.232 103.031,42.433 102.671,43.072L102.627,43.072L102.627,42.343L101.652,42.343C101.685,42.736 101.707,43.126 101.707,43.52L101.707,47.999L102.627,47.999L102.627,44.65C102.627,43.877 102.773,42.982 103.781,42.982C104.564,42.982 104.777,43.475 104.777,44.08L104.777,47.999L105.695,47.999Z" style="fill:black;fill-rule:nonzero;"/>
        <path d="M108.238,42.343L107.32,42.343L107.32,47.999L108.238,47.999L108.238,42.343ZM107.263,40.898L108.293,40.898L108.293,39.914L107.263,39.914L107.263,40.898Z" style="fill:black;fill-rule:nonzero;"/>
        <path d="M113.457,46.386C113.457,44.663 110.632,44.684 110.632,43.687C110.632,43.195 111.013,42.926 111.505,42.926C112.089,42.926 112.404,43.24 112.39,43.832L113.412,43.832C113.49,42.713 112.627,42.232 111.619,42.232C110.029,42.232 109.669,43.184 109.669,43.777C109.669,45.468 112.494,45.491 112.494,46.498C112.494,47.082 112.066,47.362 111.519,47.362C110.587,47.362 110.578,46.599 110.578,46.275L109.535,46.275C109.503,47.574 110.263,48.112 111.486,48.112C112.603,48.112 113.457,47.629 113.457,46.386Z" style="fill:black;fill-rule:nonzero;"/>
        <path d="M114.07,42.343L114.07,43.038L114.998,43.038L114.998,47.059C114.998,47.708 115.39,48.067 116.263,48.067C116.566,48.067 116.869,47.999 117.171,47.976L117.171,47.272C116.97,47.294 116.824,47.317 116.757,47.317C115.918,47.317 115.918,46.856 115.918,46.498L115.918,43.038L117.148,43.038L117.148,42.343L115.918,42.343L115.918,40.843L114.998,41.256L114.998,42.343L114.07,42.343Z" style="fill:black;fill-rule:nonzero;"/>
        <path d="M118.904,44.774C118.916,43.207 119.396,42.926 119.98,42.926C120.652,42.926 121.111,43.126 121.111,44.774L118.904,44.774ZM122.085,45.468L122.085,44.987C122.085,43.117 121.683,42.232 120.07,42.232C118.109,42.232 117.919,43.597 117.919,45.255C117.919,47.753 118.871,48.112 120.07,48.112C121.255,48.112 122.029,47.54 122.041,46.287L121.033,46.287C120.998,46.856 120.675,47.362 120.048,47.362C119.33,47.362 118.904,47.047 118.904,45.468L122.085,45.468Z" style="fill:black;fill-rule:nonzero;"/>
        <path d="M124.359,42.343L123.441,42.343L123.441,47.999L124.359,47.999L124.359,44.663C124.359,43.9 124.617,43.126 125.636,43.126C125.804,43.126 125.96,43.162 126.128,43.184L126.128,42.232C125.232,42.232 124.763,42.332 124.382,43.195L124.359,43.195L124.359,42.343Z" style="fill:black;fill-rule:nonzero;"/>
        <path d="M128.027,42.343L127.107,42.343L127.107,47.999L128.027,47.999L128.027,42.343ZM127.052,40.898L128.084,40.898L128.084,39.914L127.052,39.914L127.052,40.898Z" style="fill:black;fill-rule:nonzero;"/>
        <path d="M132.638,46.096C132.638,47.037 132.025,47.406 131.531,47.406C130.88,47.406 130.568,46.946 130.568,46.264L130.568,42.343L129.65,42.343L129.65,46.656C129.65,47.619 130.187,48.112 131.173,48.112C131.767,48.112 132.304,47.832 132.607,47.317L132.638,47.317L132.638,47.999L133.615,47.999C133.58,47.607 133.558,47.215 133.558,46.824L133.558,42.343L132.638,42.343L132.638,46.096Z" style="fill:black;fill-rule:nonzero;"/>
        <path d="M138.945,47.999L138.945,44.192C138.945,43.979 138.99,43.418 139.259,43.195C139.505,42.994 139.605,42.982 139.953,42.982C140.693,42.982 140.849,43.508 140.849,44.08L140.849,47.999L141.769,47.999L141.769,43.699C141.769,42.366 140.816,42.232 140.222,42.232C139.707,42.232 139.193,42.354 138.878,42.959C138.666,42.445 138.072,42.232 137.556,42.232C136.896,42.232 136.414,42.445 136.146,43.049L136.123,43.049L136.123,42.343L135.148,42.343C135.183,42.736 135.205,43.126 135.205,43.52L135.205,47.999L136.123,47.999L136.123,44.192C136.123,43.979 136.168,43.642 136.335,43.362C136.47,43.149 136.851,42.982 137.132,42.982C137.869,42.982 138.027,43.508 138.027,44.08L138.027,47.999L138.945,47.999Z" style="fill:black;fill-rule:nonzero;"/>
        <rect x="46.948" y="80" width="3.543" height="20.001" style="fill:rgb(241,206,4);fill-rule:nonzero;"/>
        <rect x="46.948" y="59.93" width="3.543" height="20.07" style="fill:rgb(236,28,36);fill-rule:nonzero;"/>
        <rect x="46.948" y="40" width="3.543" height="19.999" style="fill:black;fill-rule:nonzero;"/>
        <path d="M26.716,60.003M26.717,60.012M26.715,60.014M26.715,59.999M35.896,43.382C35.896,42.243 35.067,41.341 34.775,41.086L34.565,41.134C34.876,41.513 35.422,42.147 35.422,42.987C35.422,44.639 33.676,46.076 31.683,46.102C31.698,46.272 31.697,46.422 31.697,46.55C31.697,46.787 31.682,47.018 31.653,47.243C33.916,47.202 35.896,45.363 35.896,43.382ZM32.777,57.065C31.811,57.065 31.602,56.963 31.347,56.963C31.184,56.963 31.028,56.979 31.028,57.21C31.028,57.372 31.209,57.606 31.372,57.729C31.599,57.503 31.911,57.455 32.415,57.455C32.65,57.455 32.971,57.5 33.112,57.519C33.093,57.659 33.064,57.838 33.064,58.091C33.064,58.224 33.069,58.379 33.069,58.543C33.069,59.113 32.986,59.415 32.787,59.644C32.83,59.67 32.944,59.694 33.013,59.694C33.382,59.694 33.477,59.505 33.477,58.545C33.477,58.255 33.501,57.987 33.501,57.917C34.017,58.312 34.544,59.015 34.544,59.524C34.712,59.437 34.911,59.182 34.911,58.991C34.911,58.644 34.332,58.128 33.718,57.506C33.803,57.486 34.031,57.42 34.219,57.42C34.701,57.42 35.091,57.5 35.318,57.768C35.408,57.67 35.482,57.376 35.482,57.21C35.482,56.921 35.316,56.931 35.196,56.931C34.683,56.931 34.048,57.011 33.593,57.086C33.428,56.866 32.376,55.442 32.103,54.682C32.024,54.655 31.963,54.632 31.834,54.632C31.581,54.632 31.515,54.809 31.449,55.051C32.029,55.755 32.587,56.521 32.777,57.065ZM27.013,55.051C26.947,54.809 26.883,54.632 26.629,54.632C26.499,54.632 26.438,54.655 26.361,54.682C26.086,55.442 25.035,56.866 24.869,57.086C24.416,57.011 23.779,56.931 23.267,56.931C23.146,56.931 22.98,56.921 22.98,57.21C22.98,57.376 23.054,57.67 23.145,57.768C23.371,57.5 23.762,57.42 24.244,57.42C24.432,57.42 24.659,57.486 24.744,57.506C24.13,58.128 23.551,58.644 23.551,58.991C23.551,59.182 23.751,59.437 23.919,59.524C23.919,59.015 24.446,58.312 24.961,57.917C24.961,57.987 24.986,58.255 24.986,58.545C24.986,59.505 25.081,59.694 25.45,59.694C25.518,59.694 25.632,59.67 25.676,59.644C25.477,59.415 25.393,59.113 25.393,58.543C25.393,58.379 25.399,58.224 25.399,58.091C25.399,57.838 25.37,57.659 25.351,57.519C25.491,57.5 25.813,57.455 26.048,57.455C26.551,57.455 26.863,57.503 27.091,57.729C27.254,57.606 27.435,57.372 27.435,57.21C27.435,56.979 27.279,56.963 27.115,56.963C26.86,56.963 26.652,57.065 25.686,57.065C25.876,56.521 26.433,55.755 27.013,55.051ZM23.041,42.987C23.041,42.147 23.587,41.513 23.897,41.134L23.689,41.086C23.395,41.341 22.567,42.243 22.567,43.382C22.567,45.376 24.575,47.228 26.858,47.244C26.834,47.027 26.82,46.797 26.82,46.55C26.82,46.397 26.826,46.246 26.839,46.104C24.822,46.104 23.041,44.655 23.041,42.987ZM29.175,41.451C29.279,41.211 29.418,40.927 29.418,40.615C29.418,39.749 28.701,39.337 27.741,39.337C27.248,39.337 26.999,39.497 26.999,39.657C26.999,39.817 27.162,40.168 27.225,40.277C27.402,40.198 27.723,40.104 27.908,40.104C28.567,40.104 29.06,40.843 29.175,41.451ZM29.647,40.344C30.208,40.454 30.59,39.737 30.057,39.609C30.131,39.845 29.772,40.012 29.772,40.012C29.772,40.012 29.635,39.696 29.813,39.515C29.486,39.355 29.403,39.549 29.397,39.75C29.525,39.922 29.609,40.123 29.647,40.344ZM31.463,45.257C31.553,45.263 31.639,45.268 31.729,45.268C33.308,45.268 34.876,44.247 34.876,42.937C34.876,42.239 34.562,41.75 34.173,41.209C33.946,41.248 33.738,41.269 33.575,41.269C32.859,41.269 32.471,40.885 32.443,40.508C32.443,40.169 32.719,39.913 33.147,39.913C33.812,39.913 35.023,40.535 36.244,40.535C36.124,40.625 35.924,40.721 35.683,40.811C36.398,41.456 36.877,42.319 37.059,43.242L38.93,46.236C39.244,46.736 39.908,47.718 40.909,48.486C39.699,48.486 38.896,48.514 37.873,46.896L36.915,45.362C36.844,45.56 36.755,45.753 36.653,45.943L38.56,48.996C38.878,49.5 39.534,50.476 40.54,51.247C39.33,51.247 38.528,51.276 37.504,49.657L35.863,47.029C35.74,47.159 35.611,47.287 35.474,47.41L37.791,51.117C38.109,51.624 38.764,52.594 39.771,53.367C38.56,53.367 37.758,53.395 36.734,51.776L34.477,48.163C34.327,48.257 34.175,48.347 34.019,48.434L36.774,52.844C37.092,53.35 37.746,54.322 38.753,55.094C37.544,55.094 36.74,55.123 35.719,53.503L32.881,48.961C32.713,49.027 32.542,49.087 32.369,49.143L35.576,54.277C35.888,54.774 36.559,55.76 37.554,56.526C36.345,56.526 35.542,56.554 34.52,54.935L31.102,49.464L30.997,49.483C30.904,49.779 30.84,50.055 30.84,50.331C30.84,52.049 31.968,53.567 33.322,54.739C33.235,54.776 33.084,54.79 32.944,54.79C32.666,54.79 32.485,54.774 32.357,54.752C32.672,55.466 33.346,56.386 33.686,56.863C34.129,56.784 34.774,56.72 35.196,56.72C35.638,56.72 35.687,56.979 35.687,57.21C35.687,57.611 35.499,57.933 35.282,58.111C35.2,57.904 35.035,57.63 34.219,57.63L34.136,57.633C34.376,57.9 35.122,58.503 35.122,58.991C35.122,59.312 34.769,59.794 34.303,59.794C34.332,59.691 34.327,59.595 34.327,59.524C34.327,59.13 33.979,58.669 33.684,58.348C33.691,58.444 33.688,58.433 33.688,58.545C33.688,59.476 33.605,59.904 33.013,59.904C32.723,59.904 32.522,59.745 32.454,59.698C32.837,59.343 32.858,59.065 32.858,58.543L32.855,58.091C32.854,57.972 32.856,57.815 32.874,57.7C32.662,57.67 32.578,57.671 32.415,57.671C32.415,57.671 31.574,57.605 31.372,58.041C31.145,57.833 30.814,57.539 30.814,57.21C30.814,56.996 30.916,56.752 31.347,56.752C31.511,56.752 32.027,56.854 32.458,56.854C32.343,56.596 31.826,55.842 31.381,55.293C31.313,55.505 31.207,55.737 30.972,55.923C30.94,55.571 30.734,54.459 30.184,53.81C30.12,54.248 30.033,54.7 30.033,55.65C30.033,57.963 30.589,59.672 31.771,59.999C31.617,60.268 31.293,60.508 30.955,60.508C30.523,60.508 30.288,60.019 30.047,59.557C29.923,59.899 29.578,60.731 29.231,60.731C28.885,60.731 28.54,59.899 28.416,59.557C28.175,60.019 27.94,60.508 27.507,60.508C27.17,60.508 26.845,60.268 26.692,59.999C27.873,59.672 28.43,57.963 28.43,55.65C28.43,54.7 28.343,54.248 28.278,53.81C27.729,54.459 27.522,55.571 27.49,55.923C27.256,55.737 27.15,55.505 27.082,55.293C26.636,55.842 26.121,56.596 26.004,56.854C26.437,56.854 26.951,56.752 27.115,56.752C27.547,56.752 27.649,56.996 27.649,57.21C27.649,57.539 27.317,57.833 27.091,58.041C26.888,57.605 26.048,57.671 26.048,57.671C25.885,57.671 25.801,57.67 25.589,57.7C25.606,57.815 25.61,57.972 25.607,58.091L25.605,58.543C25.605,59.065 25.625,59.343 26.009,59.698C25.94,59.745 25.74,59.904 25.45,59.904C24.858,59.904 24.774,59.476 24.774,58.545C24.774,58.433 24.771,58.444 24.779,58.348C24.483,58.669 24.136,59.13 24.136,59.524C24.136,59.595 24.131,59.691 24.159,59.794C23.694,59.794 23.341,59.312 23.341,58.991C23.341,58.503 24.088,57.9 24.326,57.633L24.244,57.63C23.428,57.63 23.262,57.904 23.181,58.111C22.963,57.933 22.775,57.611 22.775,57.21C22.775,56.979 22.825,56.72 23.267,56.72C23.689,56.72 24.334,56.784 24.777,56.863C25.116,56.386 25.79,55.466 26.105,54.752C25.978,54.774 25.798,54.79 25.519,54.79C25.379,54.79 25.227,54.776 25.142,54.739C26.495,53.567 27.622,52.049 27.622,50.331C27.622,50.055 27.559,49.779 27.465,49.483L27.362,49.464L23.943,54.935C22.921,56.554 22.118,56.526 20.909,56.526C21.904,55.76 22.574,54.774 22.886,54.277L26.094,49.143C25.921,49.087 25.751,49.027 25.582,48.961L22.745,53.503C21.722,55.123 20.918,55.094 19.71,55.094C20.717,54.322 21.37,53.35 21.688,52.844L24.444,48.434C24.287,48.347 24.135,48.257 23.986,48.163L21.728,51.776C20.705,53.395 19.903,53.367 18.692,53.367C19.699,52.594 20.354,51.624 20.672,51.117L22.988,47.41C22.852,47.287 22.722,47.159 22.6,47.029L20.959,49.657C19.935,51.276 19.132,51.247 17.923,51.247C18.928,50.476 19.585,49.5 19.903,48.996L21.809,45.943C21.708,45.753 21.62,45.56 21.548,45.362L20.589,46.896C19.566,48.514 18.764,48.486 17.555,48.486C18.556,47.718 19.219,46.736 19.534,46.236L21.404,43.242C21.586,42.319 22.064,41.456 22.779,40.811C22.54,40.721 22.339,40.625 22.219,40.535C23.44,40.535 24.65,39.914 25.315,39.914C25.745,39.914 26.019,40.169 26.019,40.508C25.992,40.885 25.603,41.269 24.887,41.269C24.725,41.269 24.517,41.248 24.289,41.209C23.901,41.75 23.587,42.239 23.587,42.937C23.587,44.247 25.154,45.268 26.735,45.268C26.824,45.268 26.91,45.263 26.999,45.257C27.312,44.197 27.979,43.5 28.511,42.82C27.873,42.587 27.161,41.981 27.161,41.707C27.242,41.66 28.465,42.044 28.592,42.079C28.618,42.085 28.644,42.087 28.673,42.079C28.822,42.034 28.947,41.816 28.947,41.793C28.816,41.772 28.049,41.672 27.524,41.482C27.126,41.336 26.924,41.072 26.924,40.971C27.051,40.951 27.537,41.206 28.25,41.206C28.513,41.206 28.564,41.195 28.826,41.163C28.642,40.725 28.296,40.355 27.908,40.355C27.752,40.355 27.41,40.453 27.124,40.595C26.925,40.287 26.75,39.879 26.75,39.657C26.75,39.395 27.009,39.087 27.741,39.087C27.946,39.087 28.137,39.105 28.315,39.138C28.458,39.165 28.578,39.197 28.707,39.248C28.697,39.23 28.691,39.191 28.691,39.155C28.691,39.053 28.783,38.947 29.127,38.947C29.729,38.947 30.347,39.144 31.104,39.144C31.3,39.144 31.433,39.138 31.547,39.09C31.498,39.241 31.285,39.463 31.09,39.643C31.21,39.808 31.523,40.205 31.523,40.846C31.523,41.876 30.844,42.726 30.844,43.768C30.844,44.387 31.321,44.932 31.463,45.257Z" style="fill:black;fill-rule:nonzero;"/>
        <path d="M59.988,16.297C59.988,15.703 59.744,15.38 59.092,15.38C58.89,15.38 58.162,15.415 58.162,16.473L58.162,18.181C58.162,19.287 58.483,19.566 59.092,19.566C59.555,19.566 59.862,19.44 59.996,19.342L59.996,17.831L59.064,17.831L59.064,17.27L60.64,17.27L60.64,19.728C60.227,19.952 59.744,20.105 59.092,20.105C58.022,20.105 57.503,19.552 57.503,18.152L57.503,16.494C57.503,15.485 58.022,14.841 59.092,14.841C60.185,14.841 60.703,15.241 60.661,16.297L59.988,16.297Z" style="fill:black;fill-rule:nonzero;"/>
        <path d="M61.843,20L61.843,14.946L64.447,14.946L64.447,15.506L62.487,15.506L62.487,17.13L64.308,17.13L64.308,17.69L62.487,17.69L62.487,19.44L64.489,19.44L64.489,20L61.843,20Z" style="fill:black;fill-rule:nonzero;"/>
        <path d="M65.294,20L65.294,14.946L67.8,14.946L67.8,15.506L65.939,15.506L65.939,17.13L67.703,17.13L67.703,17.69L65.939,17.69L65.939,20L65.294,20Z" style="fill:black;fill-rule:nonzero;"/>
        <path d="M68.43,18.152L68.43,16.494C68.43,15.485 68.948,14.841 70.02,14.841C71.09,14.841 71.608,15.485 71.608,16.494L71.608,18.152C71.608,19.552 71.09,20.105 70.02,20.105C68.948,20.105 68.43,19.552 68.43,18.152ZM69.739,14.352L69.082,14.352L69.082,13.623L69.739,13.623L69.739,14.352ZM70.95,18.181L70.95,16.473C70.95,15.415 70.222,15.38 70.02,15.38C69.816,15.38 69.088,15.415 69.088,16.473L69.088,18.181C69.088,19.287 69.41,19.566 70.02,19.566C70.628,19.566 70.95,19.287 70.95,18.181ZM70.971,14.352L70.314,14.352L70.314,13.623L70.971,13.623L70.971,14.352Z" style="fill:black;fill-rule:nonzero;"/>
        <path d="M73.358,17.676L73.358,20L72.714,20L72.714,14.946L74.458,14.946C75.354,14.946 75.668,15.577 75.668,16.207C75.668,16.801 75.339,17.256 74.744,17.361L74.744,17.375C75.325,17.466 75.535,17.663 75.57,18.677C75.577,18.894 75.647,19.686 75.745,20L75.073,20C74.891,19.65 74.933,18.993 74.877,18.32C74.828,17.705 74.331,17.676 74.114,17.676L73.358,17.676ZM73.358,17.117L74.324,17.117C74.786,17.117 75.01,16.717 75.01,16.276C75.01,15.913 74.828,15.506 74.331,15.506L73.358,15.506L73.358,17.117Z" style="fill:black;fill-rule:nonzero;"/>
        <path d="M76.634,14.946L78.189,14.946C78.833,14.946 79.294,15.178 79.546,15.716C79.75,16.144 79.771,17.151 79.771,17.312C79.771,18.391 79.672,19.014 79.462,19.35C79.189,19.784 78.678,20 77.796,20L76.634,20L76.634,14.946ZM77.278,19.44L77.887,19.44C78.783,19.44 79.112,19.104 79.112,17.929L79.112,16.907C79.112,15.884 78.797,15.506 78.126,15.506L77.278,15.506L77.278,19.44Z" style="fill:black;fill-rule:nonzero;"/>
        <path d="M80.897,20L80.897,14.946L83.502,14.946L83.502,15.506L81.541,15.506L81.541,17.13L83.361,17.13L83.361,17.69L81.541,17.69L81.541,19.44L83.543,19.44L83.543,20L80.897,20Z" style="fill:black;fill-rule:nonzero;"/>
        <path d="M85.027,17.676L85.027,20L84.383,20L84.383,14.946L86.127,14.946C87.022,14.946 87.337,15.577 87.337,16.207C87.337,16.801 87.008,17.256 86.414,17.361L86.414,17.375C86.994,17.466 87.205,17.663 87.239,18.677C87.247,18.894 87.316,19.686 87.415,20L86.743,20C86.56,19.65 86.602,18.993 86.546,18.32C86.498,17.705 86,17.676 85.783,17.676L85.027,17.676ZM85.027,17.117L85.993,17.117C86.456,17.117 86.679,16.717 86.679,16.276C86.679,15.913 86.498,15.506 86,15.506L85.027,15.506L85.027,17.117Z" style="fill:black;fill-rule:nonzero;"/>
        <path d="M91.125,14.946L91.125,15.506L89.794,15.506L89.794,20L89.151,20L89.151,15.506L87.82,15.506L87.82,14.946L91.125,14.946Z" style="fill:black;fill-rule:nonzero;"/>
        <path d="M95.1,20L94.331,20L92.868,14.946L93.567,14.946L94.722,19.392L94.736,19.392L95.918,14.946L96.577,14.946L95.1,20Z" style="fill:black;fill-rule:nonzero;"/>
        <path d="M97.214,18.152L97.214,16.494C97.214,15.485 97.732,14.841 98.803,14.841C99.875,14.841 100.392,15.485 100.392,16.494L100.392,18.152C100.392,19.552 99.875,20.105 98.803,20.105C97.732,20.105 97.214,19.552 97.214,18.152ZM99.734,18.181L99.734,16.473C99.734,15.415 99.006,15.38 98.803,15.38C98.6,15.38 97.873,15.415 97.873,16.473L97.873,18.181C97.873,19.287 98.194,19.566 98.803,19.566C99.412,19.566 99.734,19.287 99.734,18.181Z" style="fill:black;fill-rule:nonzero;"/>
        <path d="M102.122,20L101.519,20L101.519,14.946L102.562,14.946L103.835,19.188L103.85,19.188L105.138,14.946L106.202,14.946L106.202,20L105.558,20L105.558,15.506L105.543,15.506L104.13,20L103.521,20L102.135,15.506L102.122,15.506L102.122,20Z" style="fill:black;fill-rule:nonzero;"/>
    </g>
</svg>
