<?xml version="1.0" encoding="utf-8"?>
<!-- Generator: Adobe Illustrator 24.0.3, SVG Export Plug-In . SVG Version: 6.00 Build 0)  -->
<svg version="1.1" id="genua-logo-screen-RGB" xmlns="http://www.w3.org/2000/svg" xmlns:xlink="http://www.w3.org/1999/xlink"
	 x="0px" y="0px" viewBox="0 0 850.2 240.8" style="enable-background:new 0 0 850.2 240.8;" xml:space="preserve">
<style type="text/css">
	.st0{fill:#7D37F0;}
</style>
<g>
	<path class="st0" d="M843.4,165.1h-13.7c-3.8,0-6.9,3.1-6.9,6.9v13.8c0,3.8,3.1,6.8,6.8,6.8h13.8c3.8,0,6.9-3.1,6.9-6.9v-13.7
		C850.2,168.1,847.2,165.1,843.4,165.1z"/>
	<path class="st0" d="M465.4,75.2c-4.5-4.5-9.8-6.7-16-6.7h-31.9h-0.3c-0.7,0-1.4,0.1-2.1,0.3c-2,0.6-3.7,1.9-4.9,3.6l-7.8,10.1
		c-0.5,0.7-1.3,0.8-2.1,0.7h-1.9v-7.9v-5.1c0-0.9-0.8-1.7-1.7-1.7h-5.2h-1.4h-11.2h-1.2c-3.8,0-6.9,3.1-6.9,6.9v1.2v12.6v96.3
		c0,4,3.2,7.2,7.2,7.2h13.1c4,0,7.2-3.2,7.2-7.2v-70.2l0,0c0-4.3,1.2-7.6,3.8-10.3l8.6-9.1c2.6-2.6,5.9-4.1,10.5-4.1h18.7
		c5.5,0,9.8,1.7,13.4,5.2l8.1,8.1c3.1,3.1,4.5,6.4,4.5,10v70.2c0,4,3.2,7.2,7.2,7.2h13.1c4,0,7.2-3.2,7.2-7.2v-76.4
		c0-4.3-1.4-7.9-4.5-11L465.4,75.2z"/>
	<path class="st0" d="M636,68.5h-13.1c-4,0-7.2,3.2-7.2,7.2v70.2c0,4.3-1.2,7.6-3.8,10.2l-8.6,9.1c-2.6,2.6-6,4.1-10.5,4.1h-18.9
		c-5.5,0-9.8-1.7-13.4-5.2l-8.1-8.1c-3.1-3.1-4.5-6.4-4.5-10V75.2c0-3.7-3-6.7-6.7-6.7h-13.4c-4,0-7.2,3.2-7.2,7.2V152
		c0,4.3,1.4,7.9,4.5,11l23.4,22.9c4.5,4.5,9.8,6.7,16,6.7h31.8h0.3c0.6,0,1.3-0.1,2-0.3c2-0.6,3.7-1.9,5-3.5l7.8-10.1
		c0.5-0.7,1.5-0.8,2.3-0.7h1.8v7.9v0v5.1c0,0.9,0.8,1.7,1.7,1.7h4.7h13.1c0,0,0,0,0.1,0h1c3.8,0,6.9-3.1,6.9-6.9v-1.1V172V75.7
		C643.1,71.7,639.9,68.5,636,68.5z"/>
	<path class="st0" d="M788.5,68.5h-1.7h-12h-60.3c-4.5,0-8.4,1.4-11.5,4.1l-27.9,24.3c-3.1,2.6-4.5,6.4-4.5,11.5v43.4
		c0,5.2,1.7,9.3,4.8,11.9l27.2,24.6c3.3,2.9,7.4,4.3,11.9,4.3h30.1h4.3v-0.1h0.3c0.6,0,1.2-0.1,1.8-0.2c2.1-0.5,3.9-1.9,5.2-3.6
		l7.8-10.1c0.5-0.7,1.3-0.8,2.1-0.7h1.9v7.9v5.1c0,0.9,0.8,1.7,1.7,1.7h18.6c0,0,0,0,0.1,0h0.2c3.8,0,6.9-3.1,6.9-6.9v-0.3V172V89.1
		v-12v-1.7C795.4,71.6,792.3,68.5,788.5,68.5z M768.2,146.3c0,4.3-1.2,7.6-3.8,10.3l-8.6,9.1c-2.6,2.6-6,4.1-10.5,4.1h-25.1
		c-4.3,0-7.6-1.4-10.3-4.1l-8.6-9.1c-2.6-2.6-3.8-6-3.8-10.5v-31c0-4.1,1.2-7.4,3.8-10l8.6-9.1c2.6-3.1,6.2-4.5,10.3-4.5h43.9
		c2.1,0,4.1,1.7,4.1,3.8V146.3z"/>
	<path class="st0" d="M186.5,68.5h-1.7h-12h-60.3c-4.5,0-8.6,1.4-11.9,4.3L73.4,97.4c-3.1,2.6-4.8,6.7-4.8,11.9v40.3
		c0,5,1.4,8.8,4.5,11.5l27.9,25.3c2.9,2.6,6.7,4.1,11.5,4.1h34.6v0h0.3c0.7,0,1.4-0.1,2.1-0.3c2-0.6,3.7-1.9,4.9-3.6l7.8-10.1
		c0.5-0.7,1.5-0.8,2.3-0.7h1.9v8.4v7.7v1c0,3.6-1,6.7-2.9,9.1l-9.1,10.7c-2.6,3.1-6.4,5.3-11.5,5.3h-33.9c-4,0-7.2,3.2-7.2,7.2v8.6
		c0,4,3.2,7.1,7.2,7.1h42.2c5.2,0,9.3-1.7,12.4-4.8l25.8-27.7c2.6-2.6,3.8-6.2,3.8-11.2V89.1v-12v-1.7
		C193.4,71.6,190.3,68.5,186.5,68.5z M166.4,144.4c0,4.1-1.2,7.4-3.8,10l-8.6,9.1c-2.6,3.1-6.2,4.5-10.3,4.5h-25.5
		c-4.1,0-7.6-1.4-10.3-4.5l-8.6-9.1c-2.6-2.6-3.8-6-3.8-10V115c0-4.3,1.2-7.9,3.8-10.5l8.6-9.1c2.6-2.6,6-4.1,10.3-4.1h44.4
		c2.6,0,3.8,1.2,3.8,3.8V144.4z"/>
	<path class="st0" d="M109.6,20.6V6.8c0-3.8-3.1-6.8-6.9-6.8H27.4C12.3,0,0,12.3,0,27.4v41.1c0,3.8,3.1,6.9,6.9,6.9h13.7
		c3.8,0,6.9-3.1,6.9-6.9l0-38.3c0-1.5,1.2-2.7,2.7-2.7l72.6,0C106.6,27.4,109.6,24.3,109.6,20.6z"/>
	<path class="st0" d="M338.9,96.9L311,72.6c-3.1-2.6-6.9-4.1-11.5-4.1h-34.8c-4.5,0-8.4,1.4-11.5,4.1l-27.9,24.3
		c-3.1,2.6-4.5,6.4-4.5,11.5v43.4c0,5.2,1.7,9.3,4.8,11.9l27.2,24.6c3.3,2.9,7.4,4.3,11.9,4.3h58.9c4.8,0,7.2-2.4,7.2-7.2v-8.4
		c0-4.8-2.4-7.2-7.2-7.2h-53c-4.3,0-7.9-1.4-10.5-4.3l-8.6-9.1c-2.6-2.6-3.8-6.2-3.8-10.5c0-1.6,0-4.5,0-4.5s2.5,0,3.8,0h83.3
		c5.7,0,8.6-2.9,8.6-8.6v-24.6C343.5,103.3,342,99.5,338.9,96.9z M317.9,117.7c0,2.6-1.2,3.8-3.6,3.8h-62.8c-2.4,0-3.8-1.6-3.8-3.8
		V115c0-4.1,1.2-7.4,3.8-10l8.6-9.1c2.9-3.1,6.2-4.8,10.3-4.8h24.1c3.8,0,6.9,1.2,9.5,3.8l10.3,9.3c2.4,2.1,3.6,4.8,3.6,8.1V117.7z"
		/>
</g>
</svg>
