<?xml version="1.0" encoding="UTF-8" standalone="no"?>
<!DOCTYPE svg PUBLIC "-//W3C//DTD SVG 1.1//EN" "http://www.w3.org/Graphics/SVG/1.1/DTD/svg11.dtd">
<svg width="100%" height="100%" viewBox="0 0 389 159" version="1.1" xmlns="http://www.w3.org/2000/svg" xmlns:xlink="http://www.w3.org/1999/xlink" xml:space="preserve" style="fill-rule:evenodd;clip-rule:evenodd;stroke-linejoin:round;stroke-miterlimit:1.41421;">
    <g transform="matrix(1,0,0,1,-103,-341.89)">
        <g>
            <path d="M315.598,435.433L315.598,358.898L335.441,358.898L355.283,407.087L355.283,358.898L474.338,358.898L443.158,378.74L375.127,378.74L375.127,455.276L355.283,455.276L335.441,407.087L335.441,455.276L120.008,455.276L120.008,387.244L139.851,387.244L139.851,435.433L315.598,435.433Z" style="fill:rgb(46,36,122);"/>
            <path d="M150.29,410.175L164.929,407.952C165.537,410.783 166.807,412.952 168.713,414.415C170.619,415.878 173.284,416.624 176.709,416.624C180.48,416.624 183.325,415.92 185.217,414.539C186.488,413.572 187.136,412.274 187.136,410.658C187.136,409.554 186.791,408.615 186.1,407.896C185.382,407.205 183.738,406.556 181.225,405.976C169.458,403.379 162,401.004 158.851,398.863C154.487,395.894 152.305,391.751 152.305,386.461C152.305,381.696 154.197,377.677 157.968,374.432C161.738,371.174 167.594,369.544 175.508,369.544C183.049,369.544 188.67,370.773 192.329,373.23C196.003,375.688 198.53,379.32 199.912,384.126L186.156,386.668C185.576,384.527 184.444,382.87 182.814,381.737C181.17,380.605 178.809,380.025 175.771,380.025C171.932,380.025 169.184,380.564 167.526,381.641C166.421,382.387 165.855,383.381 165.855,384.597C165.855,385.633 166.352,386.531 167.319,387.249C168.617,388.215 173.175,389.583 180.937,391.336C188.698,393.104 194.14,395.273 197.206,397.827C200.245,400.424 201.776,404.042 201.776,408.682C201.776,413.723 199.664,418.073 195.452,421.705C191.225,425.337 184.969,427.16 176.71,427.16C169.197,427.16 163.245,425.627 158.88,422.589C154.503,419.551 151.63,415.407 150.29,410.187L150.29,410.175Z" style="fill:black;"/>
            <path d="M225.461,387.595L212.216,385.22C213.694,379.889 216.262,375.939 219.895,373.384C223.527,370.83 228.941,369.546 236.095,369.546C242.586,369.546 247.448,370.319 250.624,371.852C253.8,373.384 256.051,375.345 257.35,377.706C258.648,380.081 259.297,384.446 259.297,390.771L259.131,407.8C259.131,412.633 259.365,416.224 259.835,418.517C260.303,420.809 261.187,423.282 262.458,425.906L248.027,425.906C247.654,424.939 247.185,423.503 246.632,421.611C246.383,420.755 246.204,420.174 246.107,419.899C243.621,422.316 240.942,424.139 238.111,425.34C235.28,426.556 232.241,427.163 229.037,427.163C223.361,427.163 218.872,425.616 215.613,422.551C212.354,419.471 210.71,415.562 210.71,410.867C210.71,407.745 211.456,404.956 212.934,402.525C214.425,400.094 216.511,398.216 219.19,396.932C221.869,395.634 225.75,394.488 230.791,393.52C237.614,392.249 242.337,391.048 244.961,389.943L244.961,388.493C244.961,385.689 244.271,383.687 242.889,382.499C241.508,381.311 238.898,380.704 235.058,380.704C232.462,380.704 230.432,381.215 228.981,382.237C227.53,383.259 226.343,385.054 225.445,387.61L225.461,387.595ZM244.976,399.431C243.098,400.053 240.129,400.812 236.096,401.669C232.05,402.525 229.398,403.395 228.155,404.224C226.249,405.564 225.296,407.29 225.296,409.361C225.296,411.391 226.056,413.159 227.575,414.651C229.094,416.143 231.041,416.888 233.389,416.888C236.013,416.888 238.54,416.018 240.916,414.291C242.684,412.979 243.844,411.363 244.396,409.458C244.769,408.215 244.962,405.839 244.962,402.345L244.976,399.431Z" style="fill:black;"/>
            <path d="M287.637,425.906L273.053,425.906L273.053,370.789L286.601,370.789L286.601,378.632C288.921,374.931 291.007,372.487 292.857,371.314C294.707,370.141 296.807,369.546 299.154,369.546C302.468,369.546 305.687,370.471 308.767,372.294L304.251,385.012C301.792,383.424 299.499,382.623 297.4,382.623C295.357,382.623 293.616,383.189 292.208,384.308C290.8,385.427 289.667,387.471 288.866,390.398C288.051,393.34 287.637,399.513 287.637,408.891L287.637,425.906Z" style="fill:black;"/>
            <path d="M419.146,434.569L433.673,437.013C431.81,442.344 428.855,446.405 424.821,449.181C420.788,451.97 415.733,453.366 409.684,453.366C400.098,453.366 393,450.23 388.401,443.961C384.784,438.947 382.96,432.608 382.96,424.971C382.96,415.843 385.351,408.675 390.114,403.51C394.893,398.346 400.942,395.75 408.233,395.75C416.438,395.75 422.915,398.457 427.651,403.869C432.389,409.283 434.653,417.583 434.446,428.756L397.903,428.756C398.001,433.079 399.188,436.449 401.424,438.852C403.676,441.255 406.492,442.456 409.85,442.456C412.127,442.456 414.061,441.835 415.608,440.592C417.155,439.349 418.342,437.333 419.129,434.571L419.146,434.571L419.146,434.569ZM419.975,419.819C419.864,415.607 418.774,412.389 416.702,410.207C414.63,408.012 412.089,406.907 409.12,406.907C405.944,406.907 403.306,408.067 401.233,410.387C399.163,412.707 398.139,415.856 398.167,419.834L419.975,419.819Z" style="fill:black;"/>
            <path d="M473.314,397.013L473.3,408.641L463.343,408.641L463.343,430.862C463.343,435.35 463.439,437.975 463.618,438.72C463.811,439.466 464.253,440.087 464.917,440.557C465.593,441.04 466.423,441.289 467.39,441.289C468.73,441.289 470.691,440.819 473.259,439.893L474.501,451.205C471.105,452.655 467.251,453.387 462.97,453.387C460.345,453.387 457.97,452.946 455.87,452.062C453.757,451.178 452.196,450.032 451.216,448.636C450.236,447.241 449.546,445.335 449.173,442.947C448.868,441.261 448.702,437.823 448.702,432.672L448.702,408.642L442.005,408.642L442.005,397.014L448.702,397.014L448.702,386.062L463.343,377.555L463.343,397.014L473.314,397.014L473.314,397.013Z" style="fill:black;"/>
            <path d="M103,341.89L491.346,341.89L491.346,500.684L103,500.684L103,341.89ZM111.504,350.552L482.841,350.552L482.841,463.46L111.504,463.46L111.504,350.552Z" style="fill:black;"/>
            <rect x="120.008" y="359.852" width="19.843" height="18.888" style="fill:rgb(46,36,122);"/>
            <path d="M113.828,485.948L119.406,485.598C119.525,486.504 119.773,487.193 120.144,487.67C120.745,488.438 121.61,488.817 122.732,488.817C123.567,488.817 124.212,488.623 124.667,488.23C125.118,487.836 125.343,487.381 125.343,486.865C125.343,486.375 125.131,485.933 124.698,485.545C124.265,485.156 123.267,484.79 121.695,484.445C119.124,483.867 117.291,483.102 116.196,482.144C115.092,481.185 114.54,479.966 114.54,478.482C114.54,477.506 114.823,476.584 115.388,475.717C115.953,474.852 116.802,474.171 117.936,473.672C119.071,473.178 120.626,472.93 122.6,472.93C125.025,472.93 126.875,473.381 128.147,474.282C129.419,475.183 130.174,476.619 130.417,478.584L124.892,478.906C124.746,478.054 124.437,477.431 123.965,477.043C123.497,476.659 122.847,476.465 122.022,476.465C121.337,476.465 120.825,476.606 120.48,476.898C120.136,477.185 119.963,477.538 119.963,477.954C119.963,478.254 120.104,478.523 120.387,478.767C120.665,479.019 121.319,479.248 122.357,479.464C124.919,480.017 126.752,480.577 127.86,481.143C128.969,481.708 129.777,482.406 130.28,483.246C130.783,484.081 131.04,485.017 131.04,486.055C131.04,487.27 130.7,488.392 130.028,489.416C129.357,490.445 128.416,491.223 127.206,491.752C126,492.282 124.477,492.547 122.639,492.547C119.414,492.547 117.18,491.929 115.939,490.684C114.693,489.441 113.991,487.865 113.828,485.948ZM132.991,485.391C132.991,483.297 133.698,481.566 135.111,480.21C136.529,478.85 138.437,478.169 140.844,478.169C143.595,478.169 145.676,478.969 147.08,480.563C148.21,481.849 148.776,483.434 148.776,485.316C148.776,487.427 148.073,489.159 146.673,490.51C145.273,491.857 143.334,492.532 140.856,492.532C138.648,492.532 136.863,491.971 135.499,490.849C133.826,489.463 132.991,487.643 132.991,485.391ZM138.27,485.377C138.27,486.606 138.517,487.511 139.016,488.094C139.511,488.681 140.134,488.977 140.885,488.977C141.645,488.977 142.267,488.686 142.753,488.107C143.244,487.529 143.486,486.606 143.486,485.325C143.486,484.137 143.238,483.249 142.749,482.666C142.258,482.088 141.649,481.796 140.925,481.796C140.156,481.796 139.52,482.092 139.021,482.68C138.521,483.271 138.27,484.172 138.27,485.377ZM157.177,478.483L159.685,478.483L159.685,482.339L157.177,482.339L157.177,492.223L151.894,492.223L151.894,482.339L149.929,482.339L149.929,478.483L151.894,478.483L151.894,477.861C151.894,477.299 151.956,476.681 152.075,476.01C152.199,475.338 152.424,474.786 152.755,474.363C153.087,473.934 153.554,473.59 154.151,473.325C154.752,473.064 155.63,472.931 156.788,472.931C157.711,472.931 159.049,473.037 160.811,473.254L160.228,476.438C159.596,476.333 159.088,476.284 158.7,476.284C158.227,476.284 157.887,476.364 157.68,476.522C157.472,476.681 157.326,476.933 157.238,477.278C157.195,477.467 157.177,477.87 157.177,478.483ZM167.98,473.254L167.98,478.483L170.877,478.483L170.877,482.326L167.98,482.326L167.98,487.202C167.98,487.79 168.038,488.179 168.148,488.368C168.32,488.66 168.621,488.809 169.053,488.809C169.442,488.809 169.985,488.695 170.683,488.469L171.072,492.109C169.769,492.391 168.555,492.533 167.424,492.533C166.112,492.533 165.145,492.365 164.527,492.029C163.904,491.694 163.445,491.181 163.149,490.497C162.849,489.812 162.703,488.699 162.703,487.162L162.703,482.326L160.76,482.326L160.76,478.483L162.703,478.483L162.703,475.957L167.98,473.254ZM171.836,478.483L176.933,478.483L179.145,487.14L181.941,478.483L186.689,478.483L189.586,487.14L191.799,478.483L196.861,478.483L191.799,492.223L187.117,492.223L184.334,483.955L181.645,492.223L176.933,492.223L171.836,478.483ZM202.903,482.931L197.872,482.401C198.062,481.522 198.336,480.829 198.694,480.325C199.051,479.822 199.564,479.385 200.239,479.013C200.721,478.743 201.387,478.535 202.231,478.39C203.074,478.244 203.989,478.169 204.974,478.169C206.551,478.169 207.823,478.258 208.777,478.435C209.735,478.611 210.535,478.982 211.171,479.543C211.622,479.932 211.975,480.48 212.235,481.19C212.491,481.906 212.62,482.582 212.62,483.23L212.62,489.298C212.62,489.944 212.664,490.451 212.744,490.818C212.827,491.184 213.004,491.653 213.283,492.222L208.341,492.222C208.143,491.869 208.014,491.6 207.953,491.414C207.891,491.228 207.833,490.936 207.772,490.539C207.083,491.206 206.394,491.679 205.713,491.962C204.781,492.342 203.699,492.531 202.467,492.531C200.829,492.531 199.583,492.151 198.731,491.391C197.883,490.636 197.459,489.7 197.459,488.586C197.459,487.539 197.764,486.683 198.377,486.011C198.991,485.335 200.117,484.837 201.765,484.51C203.744,484.113 205.025,483.834 205.612,483.675C206.195,483.516 206.818,483.304 207.471,483.048C207.471,482.399 207.339,481.948 207.074,481.688C206.805,481.432 206.337,481.299 205.661,481.299C204.8,481.299 204.155,481.441 203.722,481.714C203.384,481.932 203.11,482.339 202.903,482.931ZM207.469,485.7C206.745,485.961 205.99,486.19 205.208,486.389C204.139,486.671 203.459,486.954 203.177,487.228C202.881,487.515 202.735,487.837 202.735,488.2C202.735,488.615 202.881,488.951 203.168,489.216C203.46,489.477 203.883,489.61 204.444,489.61C205.032,489.61 205.575,489.468 206.083,489.186C206.586,488.899 206.944,488.55 207.156,488.143C207.368,487.733 207.469,487.199 207.469,486.544L207.469,485.7ZM215.83,478.483L220.759,478.483L220.759,480.731C221.236,479.759 221.726,479.088 222.23,478.722C222.733,478.355 223.356,478.169 224.098,478.169C224.875,478.169 225.723,478.412 226.646,478.894L225.017,482.648C224.398,482.387 223.904,482.259 223.542,482.259C222.853,482.259 222.318,482.546 221.938,483.112C221.395,483.916 221.121,485.418 221.121,487.617L221.121,492.223L215.829,492.223L215.829,478.483L215.83,478.483ZM243.222,486.659L232.666,486.659C232.759,487.507 232.988,488.134 233.351,488.55C233.859,489.146 234.526,489.442 235.343,489.442C235.86,489.442 236.354,489.314 236.818,489.053C237.105,488.89 237.41,488.603 237.737,488.188L242.926,488.665C242.131,490.048 241.177,491.037 240.055,491.638C238.933,492.234 237.326,492.534 235.228,492.534C233.408,492.534 231.978,492.278 230.931,491.765C229.889,491.252 229.023,490.436 228.338,489.319C227.653,488.201 227.309,486.889 227.309,485.379C227.309,483.233 227.998,481.492 229.372,480.168C230.75,478.838 232.649,478.171 235.074,478.171C237.04,478.171 238.595,478.472 239.729,479.067C240.869,479.659 241.739,480.525 242.331,481.651C242.927,482.782 243.223,484.253 243.223,486.063L243.223,486.659L243.222,486.659ZM237.869,484.136C237.763,483.116 237.489,482.387 237.048,481.95C236.602,481.508 236.019,481.287 235.295,481.287C234.456,481.287 233.789,481.623 233.285,482.285C232.967,482.7 232.764,483.314 232.68,484.136L237.869,484.136ZM253.809,485.948L259.387,485.598C259.506,486.504 259.754,487.193 260.125,487.67C260.726,488.438 261.591,488.817 262.713,488.817C263.548,488.817 264.193,488.623 264.648,488.23C265.099,487.836 265.324,487.381 265.324,486.865C265.324,486.375 265.112,485.933 264.679,485.545C264.246,485.156 263.247,484.79 261.676,484.445C259.105,483.867 257.272,483.102 256.177,482.144C255.073,481.185 254.521,479.966 254.521,478.482C254.521,477.506 254.804,476.584 255.369,475.717C255.934,474.852 256.782,474.171 257.917,473.672C259.052,473.178 260.607,472.93 262.581,472.93C265.006,472.93 266.856,473.381 268.128,474.282C269.4,475.183 270.155,476.619 270.399,478.584L264.874,478.906C264.728,478.054 264.419,477.431 263.947,477.043C263.479,476.659 262.829,476.465 262.004,476.465C261.319,476.465 260.807,476.606 260.462,476.898C260.118,477.185 259.945,477.538 259.945,477.954C259.945,478.254 260.086,478.523 260.369,478.767C260.647,479.019 261.301,479.248 262.339,479.464C264.901,480.017 266.734,480.577 267.842,481.143C268.951,481.708 269.759,482.406 270.262,483.246C270.765,484.081 271.021,485.017 271.021,486.055C271.021,487.27 270.681,488.392 270.01,489.416C269.339,490.445 268.398,491.223 267.188,491.752C265.982,492.282 264.459,492.547 262.621,492.547C259.397,492.547 257.162,491.929 255.921,490.684C254.675,489.441 253.972,487.865 253.809,485.948ZM272.973,485.391C272.973,483.297 273.68,481.566 275.093,480.21C276.511,478.85 278.419,478.169 280.826,478.169C283.577,478.169 285.658,478.969 287.062,480.563C288.192,481.849 288.758,483.434 288.758,485.316C288.758,487.427 288.056,489.159 286.655,490.51C285.255,491.857 283.316,492.532 280.839,492.532C278.631,492.532 276.846,491.971 275.482,490.849C273.808,489.463 272.973,487.643 272.973,485.391ZM278.251,485.377C278.251,486.606 278.498,487.511 278.997,488.094C279.492,488.681 280.115,488.977 280.865,488.977C281.625,488.977 282.247,488.686 282.733,488.107C283.224,487.529 283.466,486.606 283.466,485.325C283.466,484.137 283.218,483.249 282.728,482.666C282.238,482.088 281.628,481.796 280.904,481.796C280.135,481.796 279.499,482.092 279,482.68C278.502,483.271 278.251,484.172 278.251,485.377ZM291.474,473.254L296.756,473.254L296.756,492.223L291.474,492.223L291.474,473.254ZM314.6,492.223L309.68,492.223L309.68,489.997C308.948,490.911 308.209,491.564 307.463,491.949C306.717,492.338 305.797,492.532 304.711,492.532C303.262,492.532 302.127,492.099 301.301,491.233C300.481,490.368 300.069,489.029 300.069,487.227L300.069,478.482L305.36,478.482L305.36,486.04C305.36,486.901 305.52,487.515 305.839,487.877C306.161,488.239 306.607,488.42 307.185,488.42C307.818,488.42 308.33,488.178 308.732,487.695C309.134,487.21 309.332,486.344 309.332,485.094L309.332,478.482L314.602,478.482L314.602,492.223L314.6,492.223ZM324.148,473.254L324.148,478.483L327.044,478.483L327.044,482.326L324.148,482.326L324.148,487.202C324.148,487.79 324.205,488.179 324.316,488.368C324.488,488.66 324.789,488.809 325.22,488.809C325.611,488.809 326.154,488.695 326.851,488.469L327.24,492.109C325.937,492.391 324.722,492.533 323.592,492.533C322.279,492.533 321.313,492.365 320.696,492.029C320.073,491.694 319.614,491.181 319.317,490.497C319.016,489.812 318.872,488.699 318.872,487.162L318.872,482.326L316.929,482.326L316.929,478.483L318.872,478.483L318.872,475.957L324.148,473.254ZM329.748,473.254L335.018,473.254L335.018,476.84L329.748,476.84L329.748,473.254ZM329.748,478.483L335.018,478.483L335.018,492.223L329.748,492.223L329.748,478.483ZM337.734,485.391C337.734,483.297 338.441,481.566 339.853,480.21C341.271,478.85 343.179,478.169 345.585,478.169C348.337,478.169 350.417,478.969 351.823,480.563C352.952,481.849 353.518,483.434 353.518,485.316C353.518,487.427 352.815,489.159 351.414,490.51C350.016,491.857 348.076,492.532 345.598,492.532C343.391,492.532 341.606,491.971 340.241,490.849C338.568,489.463 337.734,487.643 337.734,485.391ZM343.012,485.377C343.012,486.606 343.26,487.511 343.758,488.094C344.254,488.681 344.877,488.977 345.627,488.977C346.387,488.977 347.01,488.686 347.494,488.107C347.984,487.529 348.228,486.606 348.228,485.325C348.228,484.137 347.98,483.249 347.49,482.666C347,482.088 346.39,481.796 345.666,481.796C344.898,481.796 344.262,482.092 343.764,482.68C343.264,483.271 343.012,484.172 343.012,485.377ZM356.055,478.483L360.961,478.483L360.961,480.718C361.695,479.804 362.438,479.155 363.188,478.761C363.938,478.368 364.854,478.169 365.93,478.169C367.387,478.169 368.528,478.607 369.354,479.473C370.174,480.338 370.586,481.676 370.586,483.488L370.586,492.223L365.295,492.223L365.295,484.666C365.295,483.805 365.135,483.195 364.816,482.838C364.494,482.476 364.048,482.299 363.47,482.299C362.833,482.299 362.312,482.542 361.919,483.024C361.521,483.505 361.323,484.376 361.323,485.626L361.323,492.224L356.053,492.224L356.053,478.483L356.055,478.483ZM372.799,488.42L378.028,487.926C378.245,488.549 378.544,488.994 378.934,489.26C379.323,489.53 379.838,489.661 380.489,489.661C381.194,489.661 381.743,489.511 382.132,489.206C382.433,488.985 382.581,488.703 382.581,488.367C382.581,487.987 382.384,487.695 381.989,487.488C381.702,487.342 380.948,487.161 379.723,486.945C377.895,486.623 376.623,486.331 375.912,486.057C375.201,485.783 374.599,485.324 374.113,484.679C373.623,484.033 373.381,483.296 373.381,482.466C373.381,481.56 373.647,480.778 374.172,480.125C374.697,479.467 375.422,478.977 376.344,478.654C377.268,478.332 378.504,478.168 380.059,478.168C381.698,478.168 382.909,478.296 383.69,478.544C384.471,478.796 385.122,479.185 385.641,479.71C386.162,480.235 386.596,480.946 386.946,481.843L381.95,482.338C381.817,481.896 381.606,481.573 381.302,481.366C380.886,481.088 380.388,480.95 379.8,480.95C379.208,480.95 378.771,481.056 378.501,481.268C378.228,481.48 378.095,481.737 378.095,482.037C378.095,482.377 378.267,482.629 378.611,482.802C378.957,482.974 379.707,483.128 380.865,483.27C382.613,483.468 383.916,483.743 384.769,484.096C385.624,484.449 386.279,484.952 386.73,485.611C387.185,486.264 387.41,486.984 387.41,487.77C387.41,488.566 387.172,489.338 386.689,490.089C386.212,490.84 385.459,491.436 384.429,491.878C383.394,492.323 381.99,492.544 380.214,492.544C377.706,492.544 375.917,492.187 374.853,491.471C373.787,490.757 373.104,489.737 372.799,488.42ZM408.643,485.351L408.643,481.407L417.698,481.407L417.698,489.494C415.968,490.674 414.434,491.481 413.1,491.906C411.766,492.335 410.186,492.546 408.356,492.546C406.104,492.546 404.272,492.162 402.854,491.394C401.432,490.63 400.333,489.486 399.555,487.967C398.772,486.447 398.379,484.707 398.379,482.741C398.379,480.67 398.809,478.868 399.66,477.335C400.517,475.808 401.767,474.646 403.414,473.851C404.699,473.237 406.432,472.932 408.603,472.932C410.697,472.932 412.265,473.122 413.308,473.502C414.345,473.882 415.206,474.469 415.896,475.269C416.58,476.064 417.097,477.076 417.441,478.303L411.789,479.31C411.555,478.594 411.156,478.047 410.6,477.667C410.049,477.287 409.338,477.097 408.477,477.097C407.192,477.097 406.166,477.543 405.403,478.436C404.637,479.332 404.255,480.741 404.255,482.675C404.255,484.729 404.644,486.196 405.415,487.074C406.185,487.953 407.263,488.394 408.644,488.394C409.298,488.394 409.925,488.297 410.517,488.107C411.115,487.918 411.798,487.595 412.562,487.14L412.562,485.351L408.643,485.351ZM420.869,478.483L425.785,478.483L425.785,480.489C426.496,479.649 427.207,479.057 427.928,478.7C428.647,478.346 429.518,478.17 430.537,478.17C431.633,478.17 432.498,478.364 433.135,478.753C433.774,479.142 434.295,479.721 434.701,480.489C435.527,479.592 436.283,478.978 436.967,478.656C437.649,478.334 438.487,478.17 439.49,478.17C440.965,478.17 442.117,478.608 442.943,479.486C443.773,480.36 444.183,481.73 444.183,483.593L444.183,492.223L438.906,492.223L438.906,484.397C438.906,483.775 438.787,483.311 438.545,483.01C438.191,482.537 437.75,482.299 437.225,482.299C436.606,482.299 436.102,482.525 435.723,482.97C435.342,483.421 435.157,484.141 435.157,485.134L435.157,492.223L429.876,492.223L429.876,484.653C429.876,484.049 429.841,483.642 429.774,483.425C429.659,483.08 429.463,482.803 429.19,482.59C428.913,482.378 428.59,482.273 428.219,482.273C427.614,482.273 427.119,482.502 426.731,482.958C426.342,483.417 426.147,484.168 426.147,485.21L426.147,492.224L420.87,492.224L420.87,478.483L420.869,478.483ZM447.355,473.254L452.673,473.254L452.673,479.825C453.198,479.273 453.798,478.862 454.466,478.584C455.132,478.311 455.874,478.169 456.687,478.169C458.357,478.169 459.744,478.774 460.839,479.976C461.935,481.182 462.482,482.909 462.482,485.157C462.482,486.659 462.23,487.984 461.732,489.123C461.232,490.268 460.539,491.12 459.656,491.686C458.773,492.25 457.793,492.534 456.711,492.534C455.787,492.534 454.943,492.336 454.176,491.942C453.596,491.629 452.969,491.046 452.285,490.193L452.285,492.224L447.355,492.224L447.355,473.254L447.355,473.254ZM452.639,485.316C452.639,486.495 452.86,487.352 453.301,487.882C453.746,488.411 454.307,488.677 454.992,488.677C455.619,488.677 456.148,488.416 456.578,487.895C457.002,487.374 457.219,486.495 457.219,485.263C457.219,484.176 457.006,483.376 456.592,482.868C456.172,482.36 455.664,482.104 455.067,482.104C454.352,482.104 453.77,482.369 453.315,482.899C452.863,483.43 452.639,484.234 452.639,485.316ZM465.381,473.254L471.24,473.254L471.24,479.892L477.65,479.892L477.65,473.254L483.537,473.254L483.537,492.223L477.65,492.223L477.65,484.552L471.24,484.552L471.24,492.223L465.381,492.223L465.381,473.254Z" style="fill:white;fill-rule:nonzero;"/>
        </g>
    </g>
</svg>